<svg width="117" height="117" viewBox="0 0 117 117" fill="none" xmlns="http://www.w3.org/2000/svg">
<path d="M58.5 117C90.8087 117 117 90.8087 117 58.5C117 26.1913 90.8087 0 58.5 0C26.1913 0 0 26.1913 0 58.5C0 90.8087 26.1913 117 58.5 117Z" fill="#FF001A"/>
<path d="M104.115 48.9728C103.994 48.797 103.962 48.7842 100.396 47.9035C98.9483 47.5416 96.6047 46.9607 95.1904 46.605C93.7747 46.2561 91.883 45.7994 90.9791 45.5926C90.0746 45.3858 88.9177 45.1119 88.4037 44.9833C87.8911 44.8479 86.4622 44.4966 85.233 44.1956C84.0037 43.8947 82.7219 43.5771 82.3826 43.4873C82.0016 43.3968 81.5665 43.3315 81.2338 43.3196C80.6078 43.31 79.3099 43.464 78.6517 43.63C77.9278 43.812 75.7201 44.8189 74.4858 45.5427C73.3056 46.2345 72.5751 46.492 71.5036 46.5896C70.9713 46.639 70.8135 46.6242 68.9104 46.2701C66.8249 45.8827 65.5695 45.6119 59.2125 44.1592C57.1701 43.689 54.7845 43.1492 53.9207 42.9497C53.057 42.7503 51.3687 42.3656 50.1698 42.091C48.9708 41.8165 46.9382 41.369 45.6422 41.0908C43.2978 40.5933 42.1921 40.3428 37.9992 39.3826C33.3046 38.3029 26.4818 36.7653 25.1993 36.4896C24.4602 36.3338 23.4221 36.0956 22.896 35.9577C21.349 35.5639 20.304 35.5548 19.1077 35.9157C18.2947 36.1651 17.8261 36.4774 17.4088 37.0432C17.077 37.4851 17.0525 37.5434 16.9483 38.1524C16.8116 38.902 16.8703 39.2686 17.2242 39.8914C17.6879 40.7156 18.881 41.5961 20.1382 42.0487C20.3941 42.1372 26.4131 43.0328 31.2122 43.6919C34.8547 44.1888 41.7197 45.1899 44.2981 45.5904C45.8452 45.8308 48.738 46.2678 50.7167 46.5519C52.701 46.8441 55.3586 47.2312 56.6289 47.421C57.8991 47.6109 60.0128 47.9197 61.3193 48.1022C62.6325 48.2859 65.2159 48.6594 67.0638 48.9337L70.4276 49.4287L71.0788 49.7219C71.897 50.0944 72.6335 50.6475 73.3151 51.3859C74.3988 52.5604 76.4953 54.6105 76.934 54.9207C77.5446 55.3601 78.3519 55.7517 79.1453 55.9941C79.7128 56.1742 79.9841 56.2168 81.2433 56.3139C82.0403 56.3825 83.1921 56.4949 83.8136 56.5665C84.4359 56.6381 85.4195 56.7546 86.0008 56.8188C87.23 56.9663 92.9016 57.5056 94.3678 57.6193C94.9177 57.6639 95.9641 57.7781 96.6946 57.8694C98.6024 58.1197 102.055 58.4704 102.258 58.4307C102.417 58.397 102.606 58.0895 102.586 57.8973C102.572 57.8181 102.511 57.6952 102.439 57.6332C102.295 57.5023 102.114 57.4623 94.4051 55.8818C85.7675 54.1178 86.1975 54.2102 86.0812 54.0425C85.9657 53.8748 85.9971 53.5874 86.1478 53.3358C86.2099 53.2217 86.3079 53.1837 86.4681 53.185C86.5931 53.1869 88.0541 53.4044 89.7155 53.6658C92.7751 54.147 95.6584 54.5962 100.199 55.2988L102.71 55.687L102.897 55.5397C103.117 55.3637 103.165 55.1421 103.034 54.9019C102.939 54.7312 102.882 54.7066 101.742 54.4499C100.153 54.0972 95.9919 53.2267 91.6336 52.3339C89.6878 51.9441 87.7529 51.5353 87.3324 51.4307L86.5712 51.243L86.55 51.0158C86.5171 50.7377 86.6267 50.4786 86.7854 50.4517C86.9222 50.4279 88.6925 50.6671 93.5546 51.3655C95.5531 51.6534 97.9735 52.0042 98.9264 52.1361C99.8777 52.2747 101.237 52.4738 101.944 52.575C103.174 52.7574 103.236 52.7617 103.42 52.6347C103.659 52.4691 103.735 52.0921 103.581 51.8686C103.47 51.7089 103.383 51.6929 95.3732 50.2319C87.6951 48.8313 87.271 48.7469 87.1496 48.6063C86.9946 48.4245 87.0136 47.8977 87.1883 47.6294C87.3536 47.3735 87.5649 47.3632 88.7759 47.5352C89.3411 47.6104 90.9119 47.8342 92.2793 48.0278C98.3136 48.8773 99.986 49.1196 100.81 49.2699C101.296 49.3586 102.178 49.4984 102.77 49.5786C103.695 49.7123 103.875 49.7174 104.003 49.629C104.186 49.502 104.248 49.1643 104.115 48.9728Z" fill="white"/>
<path d="M92.4891 65.7925C92.0299 66.4396 90.922 66.9965 89.3901 67.3516C88.0899 67.6526 85.6951 67.873 83.8933 67.8673C83.1891 67.8634 82.2794 67.8618 81.8706 67.8608C79.7427 67.8637 78.4864 67.7364 72.9672 66.9449C72.1247 66.8252 70.0714 66.4847 68.4139 66.188C65.5291 65.6674 65.3154 65.6228 63.7674 65.1931C60.753 64.3544 60.6249 64.3083 57.3673 62.9947C54.5174 61.846 54.0206 61.6704 51.7307 61.0374C49.4573 60.4075 46.9706 59.9482 43.2574 59.4805C42.1567 59.342 40.8578 59.1674 40.3696 59.101C38.2808 58.7993 36.9634 58.6326 34.811 58.3986C28.8574 57.7432 25.3512 57.3246 24.4046 57.1519C23.6561 57.0153 23.3854 56.847 23.0506 56.3441C22.6118 55.6636 22.4841 54.8359 22.6422 53.658C22.8332 52.2369 23.2659 51.3301 24.0077 50.7856C24.4139 50.4915 24.8182 50.3953 25.3425 50.4513C25.7153 50.4966 26.9265 50.8082 28.5466 51.2793C28.9623 51.4005 29.7298 51.6198 30.2502 51.76C30.7695 51.9057 31.7311 52.1831 32.384 52.3759C33.0359 52.5741 34.1681 52.8826 34.9031 53.062C35.6381 53.2414 37.2496 53.6656 38.4854 53.9986C44.3822 55.5898 46.5875 56.094 51.0139 56.8618C54.7952 57.5176 56.048 57.6951 58.2478 57.8868C59.0654 57.9566 59.8929 58.0339 60.094 58.0536C60.859 58.1308 66.3349 58.8804 68.1996 59.1639C69.2787 59.3267 71.1695 59.5923 72.4077 59.7558C75.1899 60.1218 77.0875 60.4113 81.6476 61.1637C87.2285 62.0855 89.9802 62.5874 90.4826 62.764C91.4961 63.1301 92.2032 63.5254 92.495 63.8902C92.8833 64.3802 92.8855 65.2417 92.4891 65.7925Z" fill="white"/>
<path d="M85.4695 79.4525C85.4468 78.4646 85.0958 77.5359 84.3806 76.5699C81.5236 72.7019 74.1219 70.3976 68.2209 71.5408C67.1119 71.7538 65.7427 72.2258 64.992 72.6475C64.8538 72.7261 64.438 72.9419 64.0683 73.1216C63.7034 73.302 63.175 73.5915 62.8952 73.7678C61.8842 74.3945 61.4208 74.5714 60.6372 74.6314C59.9488 74.684 58.9263 74.4778 52.0382 72.8849C50.1034 72.4381 47.8796 71.9187 47.0955 71.7361C46.3114 71.5536 44.7174 71.1936 43.5497 70.9411C42.382 70.6885 40.3169 70.2228 38.9579 69.9057C34.3625 68.8351 32.4508 68.3974 31.1362 68.1082C30.4174 67.9474 29.3753 67.7128 28.8205 67.577C27.7041 67.3141 27.2731 67.2602 26.7482 67.3127C25.8944 67.4041 25.2292 67.7376 24.8275 68.2823C24.5913 68.6 24.5756 68.6318 24.4918 69.0911C24.4198 69.513 24.4167 69.6113 24.4872 69.8763C24.6123 70.3588 24.9753 70.8403 25.5174 71.2358C26.2919 71.7973 26.2823 71.7955 28.4233 72.1168C29.4459 72.2688 30.9763 72.4886 31.8262 72.609C32.677 72.7247 33.8613 72.8863 34.4611 72.9661C37.1247 73.3283 41.504 73.9542 42.6686 74.1422C43.3712 74.2555 45.0215 74.4968 46.3343 74.687C47.648 74.872 49.3855 75.125 50.1962 75.2434C51.0069 75.3612 52.1895 75.5323 52.8267 75.6244C53.4648 75.7107 54.5602 75.8709 55.2654 75.9703C55.9698 76.0741 57.0046 76.2131 57.566 76.2862C59.2022 76.4953 60.0644 76.6577 60.4105 76.8244C60.879 77.0533 61.4595 77.5103 61.8613 77.9688C62.067 78.1992 62.4462 78.6196 62.7072 78.8997C62.9682 79.1798 63.3125 79.5732 63.4642 79.7743C63.8076 80.2276 64.5136 80.9194 65.125 81.3969C68.694 84.1837 74.7844 85.5321 79.5295 84.5881C81.0973 84.2758 82.5752 83.6704 83.5448 82.9428C84.8011 82.0053 85.4965 80.7432 85.4695 79.4525Z" fill="white"/>
</svg>
